<svg xmlns="http://www.w3.org/2000/svg" xmlns:xlink="http://www.w3.org/1999/xlink" width="1402" height="735.665" viewBox="0 0 1402 735.665">
  <defs>
    <linearGradient id="linear-gradient" x1="0.5" y1="1" x2="0.5" gradientUnits="objectBoundingBox">
      <stop offset="0" stop-color="gray" stop-opacity="0.251"/>
      <stop offset="0.54" stop-color="gray" stop-opacity="0.122"/>
      <stop offset="1" stop-color="gray" stop-opacity="0.102"/>
    </linearGradient>
    <linearGradient id="linear-gradient-2" x1="0.5" y1="1" x2="0.5" y2="-0.001" xlink:href="#linear-gradient"/>
  </defs>
  <g id="Grupo_67" data-name="Grupo 67" transform="translate(0 0.359)">
    <g id="Grupo_59" data-name="Grupo 59" transform="translate(543.85 50.809)" opacity="0.1">
      <ellipse id="Elipse_145" data-name="Elipse 145" cx="14.557" cy="19.06" rx="14.557" ry="19.06" transform="translate(54.866 393.454)" fill="#3f3d56"/>
      <path id="Caminho_569" data-name="Caminho 569" d="M546.134,467.7a23.026,23.026,0,0,0,3.044-11.653c0-10.528-6.524-19.06-14.57-19.06S520,445.548,520,456.076a23.025,23.025,0,0,0,3.045,11.654,23.806,23.806,0,0,0,0,23.294,23.806,23.806,0,0,0,0,23.294A22.948,22.948,0,0,0,520,525.971c0,10.515,6.524,19.06,14.557,19.06s14.57-8.545,14.57-19.06a22.949,22.949,0,0,0-3.044-11.653,23.806,23.806,0,0,0,0-23.294,23.806,23.806,0,0,0,0-23.294Z" transform="translate(-465.186 -136.738)" fill="#3f3d56"/>
      <ellipse id="Elipse_146" data-name="Elipse 146" cx="14.557" cy="19.06" rx="14.557" ry="19.06" transform="translate(54.866 276.983)" fill="#3f3d56"/>
      <ellipse id="Elipse_147" data-name="Elipse 147" cx="14.557" cy="19.06" rx="14.557" ry="19.06" transform="translate(54.866 253.689)" fill="#3f3d56"/>
      <path id="Caminho_570" data-name="Caminho 570" d="M492.078,315.594a67.9,67.9,0,0,1-5.424-7.982l38.248-6.281-41.369.307a69.87,69.87,0,0,1-1.279-55.261l55.5,28.795-51.168-37.634a69.755,69.755,0,1,1,115.128,78.031,69.765,69.765,0,0,1,7.957,12.715L560,354.149l52.946-17.768a69.755,69.755,0,0,1-11.244,65.495,69.742,69.742,0,1,1-109.627,0,69.742,69.742,0,0,1,0-86.243Z" transform="translate(-477.149 -202.271)" fill="#6c63ff"/>
      <path id="Caminho_571" data-name="Caminho 571" d="M616.634,324.794a69.422,69.422,0,0,1-14.928,43.122,69.742,69.742,0,1,1-109.627,0C482.728,356.045,616.634,316.966,616.634,324.794Z" transform="translate(-477.149 -168.35)" opacity="0.1"/>
    </g>
    <g id="Grupo_60" data-name="Grupo 60" transform="translate(731.343 114.554)" opacity="0.1">
      <ellipse id="Elipse_148" data-name="Elipse 148" cx="10.886" cy="14.237" rx="10.886" ry="14.237" transform="translate(40.998 293.776)" fill="#3f3d56"/>
      <path id="Caminho_572" data-name="Caminho 572" d="M675.255,450.269a17.179,17.179,0,0,0,2.264-8.7c0-7.867-4.874-14.25-10.873-14.25s-10.886,6.4-10.886,14.25a17.053,17.053,0,0,0,2.277,8.7,17.781,17.781,0,0,0,0,17.41,17.781,17.781,0,0,0,0,17.41,17.052,17.052,0,0,0-2.277,8.7c0,7.867,4.874,14.25,10.886,14.25s10.873-6.4,10.873-14.25a17.179,17.179,0,0,0-2.264-8.7,17.908,17.908,0,0,0,0-17.41,17.909,17.909,0,0,0,0-17.41Z" transform="translate(-614.775 -203.183)" fill="#3f3d56"/>
      <ellipse id="Elipse_149" data-name="Elipse 149" cx="10.886" cy="14.237" rx="10.886" ry="14.237" transform="translate(40.998 206.74)" fill="#3f3d56"/>
      <ellipse id="Elipse_150" data-name="Elipse 150" cx="10.886" cy="14.237" rx="10.886" ry="14.237" transform="translate(40.998 189.33)" fill="#3f3d56"/>
      <path id="Caminho_573" data-name="Caminho 573" d="M634.875,336.539a49.883,49.883,0,0,1-4.055-5.961l28.59-4.695-30.918.23a52.242,52.242,0,0,1-1-41.305l41.484,21.529-38.261-28.142a52.127,52.127,0,1,1,86.077,58.331,52.71,52.71,0,0,1,5.948,9.5l-37.1,19.277,39.566-13.278a52.14,52.14,0,0,1-8.4,48.942,52.114,52.114,0,1,1-81.869,0,52.115,52.115,0,0,1,0-64.446Z" transform="translate(-623.72 -252.103)" fill="#6c63ff"/>
      <path id="Caminho_574" data-name="Caminho 574" d="M727.944,343.467a51.9,51.9,0,0,1-11.155,32.223,52.115,52.115,0,1,1-81.869,0C627.91,366.826,727.944,337.622,727.944,343.467Z" transform="translate(-623.715 -226.809)" opacity="0.1"/>
    </g>
    <g id="Grupo_61" data-name="Grupo 61" transform="translate(1258.143 -0.359)" opacity="0.1">
      <ellipse id="Elipse_151" data-name="Elipse 151" cx="14.557" cy="19.06" rx="14.557" ry="19.06" transform="translate(55.848 393.454)" fill="#3f3d56"/>
      <path id="Caminho_575" data-name="Caminho 575" d="M1082.235,427.7a23.025,23.025,0,0,1-3.044-11.654c0-10.528,6.524-19.06,14.57-19.06s14.557,8.532,14.557,19.06a23.025,23.025,0,0,1-3.045,11.653,23.806,23.806,0,0,1,0,23.294,23.806,23.806,0,0,1,0,23.294,22.947,22.947,0,0,1,3.045,11.654c0,10.515-6.524,19.06-14.557,19.06s-14.57-8.545-14.57-19.06a22.948,22.948,0,0,1,3.045-11.653,23.806,23.806,0,0,1,0-23.294A23.806,23.806,0,0,1,1082.235,427.7Z" transform="translate(-1023.355 -96.738)" fill="#3f3d56"/>
      <ellipse id="Elipse_152" data-name="Elipse 152" cx="14.557" cy="19.06" rx="14.557" ry="19.06" transform="translate(55.848 276.983)" fill="#3f3d56"/>
      <ellipse id="Elipse_153" data-name="Elipse 153" cx="14.557" cy="19.06" rx="14.557" ry="19.06" transform="translate(55.848 253.689)" fill="#3f3d56"/>
      <path id="Caminho_576" data-name="Caminho 576" d="M1160.441,275.594a67.9,67.9,0,0,0,5.424-7.982l-38.248-6.281,41.369.307a69.87,69.87,0,0,0,1.279-55.261l-55.5,28.795,51.168-37.634A69.755,69.755,0,1,0,1050.8,275.568a69.769,69.769,0,0,0-7.957,12.715l49.671,25.865-52.946-17.768a69.755,69.755,0,0,0,11.244,65.495,69.742,69.742,0,1,0,109.627,0,69.742,69.742,0,0,0,0-86.243Z" transform="translate(-1035.541 -162.271)" fill="#6c63ff"/>
      <path id="Caminho_577" data-name="Caminho 577" d="M1035.81,284.794a69.423,69.423,0,0,0,14.928,43.122,69.742,69.742,0,1,0,109.627,0C1169.717,316.045,1035.81,276.966,1035.81,284.794Z" transform="translate(-1035.466 -128.35)" opacity="0.1"/>
    </g>
    <g id="Grupo_62" data-name="Grupo 62" transform="translate(1135.615 106.879)" opacity="0.1">
      <ellipse id="Elipse_154" data-name="Elipse 154" cx="10.886" cy="14.237" rx="10.886" ry="14.237" transform="translate(41.514 293.776)" fill="#3f3d56"/>
      <path id="Caminho_578" data-name="Caminho 578" d="M974.494,444.269a17.179,17.179,0,0,1-2.264-8.7c0-7.867,4.874-14.25,10.873-14.25s10.886,6.4,10.886,14.25a17.051,17.051,0,0,1-2.277,8.7,17.781,17.781,0,0,1,0,17.41,17.781,17.781,0,0,1,0,17.41,17.05,17.05,0,0,1,2.277,8.7c0,7.867-4.874,14.25-10.886,14.25s-10.873-6.4-10.873-14.25a17.178,17.178,0,0,1,2.264-8.7,17.909,17.909,0,0,1,0-17.41,17.909,17.909,0,0,1,0-17.41Z" transform="translate(-930.69 -197.183)" fill="#3f3d56"/>
      <ellipse id="Elipse_155" data-name="Elipse 155" cx="10.886" cy="14.237" rx="10.886" ry="14.237" transform="translate(41.514 206.74)" fill="#3f3d56"/>
      <ellipse id="Elipse_156" data-name="Elipse 156" cx="10.886" cy="14.237" rx="10.886" ry="14.237" transform="translate(41.514 189.33)" fill="#3f3d56"/>
      <path id="Caminho_579" data-name="Caminho 579" d="M1032.886,330.539a49.855,49.855,0,0,0,4.055-5.961l-28.59-4.695,30.918.23a52.242,52.242,0,0,0,1-41.305l-41.484,21.529,38.261-28.142a52.127,52.127,0,1,0-86.077,58.331,52.7,52.7,0,0,0-5.948,9.5l37.1,19.278-39.489-13.265a52.14,52.14,0,0,0,8.4,48.942,52.114,52.114,0,1,0,81.869,0,52.114,52.114,0,0,0,0-64.446Z" transform="translate(-939.757 -246.103)" fill="#6c63ff"/>
      <path id="Caminho_580" data-name="Caminho 580" d="M939.806,337.467A51.9,51.9,0,0,0,950.96,369.69a52.114,52.114,0,1,0,81.869,0C1039.839,360.826,939.806,331.622,939.806,337.467Z" transform="translate(-939.75 -220.809)" opacity="0.1"/>
    </g>
    <g id="Grupo_63" data-name="Grupo 63" transform="translate(9.35 -0.145)" opacity="0.1">
      <ellipse id="Elipse_157" data-name="Elipse 157" cx="14.557" cy="19.06" rx="14.557" ry="19.06" transform="translate(54.879 393.24)" fill="#3f3d56"/>
      <path id="Caminho_581" data-name="Caminho 581" d="M128.28,427.7a23.026,23.026,0,0,0,3.044-11.654c0-10.528-6.524-19.06-14.557-19.06s-14.557,8.532-14.557,19.06a23.026,23.026,0,0,0,3.032,11.654,23.883,23.883,0,0,0,0,23.294,23.883,23.883,0,0,0,0,23.294,22.936,22.936,0,0,0-3.032,11.653c0,10.515,6.511,19.06,14.557,19.06s14.6-8.519,14.6-19.034a22.949,22.949,0,0,0-3.044-11.653,23.806,23.806,0,0,0,0-23.294,23.806,23.806,0,0,0,0-23.294Z" transform="translate(-47.332 -96.953)" fill="#3f3d56"/>
      <ellipse id="Elipse_158" data-name="Elipse 158" cx="14.557" cy="19.06" rx="14.557" ry="19.06" transform="translate(54.879 276.769)" fill="#3f3d56"/>
      <ellipse id="Elipse_159" data-name="Elipse 159" cx="14.557" cy="19.06" rx="14.557" ry="19.06" transform="translate(54.879 253.475)" fill="#3f3d56"/>
      <path id="Caminho_582" data-name="Caminho 582" d="M74.264,275.547a69.5,69.5,0,0,1-5.424-7.982l38.261-6.281-41.408.371a69.87,69.87,0,0,1-1.279-55.261l55.517,28.795L68.764,197.554a69.742,69.742,0,1,1,115.128,78.031,69.768,69.768,0,0,1,7.957,12.715l-49.684,25.8,52.959-17.768a69.831,69.831,0,0,1-11.257,65.495,69.742,69.742,0,1,1-109.627,0,69.742,69.742,0,0,1,0-86.243Z" transform="translate(-59.309 -162.439)" fill="#6c63ff"/>
      <path id="Caminho_583" data-name="Caminho 583" d="M198.794,284.794a69.422,69.422,0,0,1-14.928,43.122,69.742,69.742,0,1,1-109.627,0C64.888,316.045,198.794,276.966,198.794,284.794Z" transform="translate(-59.309 -128.564)" opacity="0.1"/>
    </g>
    <g id="Grupo_64" data-name="Grupo 64" transform="translate(167.422 106.878)" opacity="0.1">
      <ellipse id="Elipse_160" data-name="Elipse 160" cx="10.886" cy="14.237" rx="10.886" ry="14.237" transform="translate(40.998 293.777)" fill="#3f3d56"/>
      <path id="Caminho_584" data-name="Caminho 584" d="M234.425,444.269a17.18,17.18,0,0,0,2.264-8.7c0-7.867-4.861-14.25-10.873-14.25s-10.886,6.4-10.886,14.25a17.179,17.179,0,0,0,2.277,8.7,17.781,17.781,0,0,0,0,17.41,17.781,17.781,0,0,0,0,17.41,17.18,17.18,0,0,0-2.277,8.7c0,7.867,4.874,14.25,10.886,14.25s10.873-6.4,10.873-14.25a17.18,17.18,0,0,0-2.264-8.7,17.909,17.909,0,0,0,0-17.41,17.908,17.908,0,0,0,0-17.41Z" transform="translate(-173.932 -197.183)" fill="#3f3d56"/>
      <ellipse id="Elipse_161" data-name="Elipse 161" cx="10.886" cy="14.237" rx="10.886" ry="14.237" transform="translate(40.998 206.74)" fill="#3f3d56"/>
      <ellipse id="Elipse_162" data-name="Elipse 162" cx="10.886" cy="14.237" rx="10.886" ry="14.237" transform="translate(40.998 189.33)" fill="#3f3d56"/>
      <path id="Caminho_585" data-name="Caminho 585" d="M194.035,330.539a51.431,51.431,0,0,1-4.055-5.961l28.59-4.695-30.918.23a52.243,52.243,0,0,1-1-41.305l41.484,21.529-38.261-28.142a52.127,52.127,0,1,1,86.077,58.331,51.323,51.323,0,0,1,5.948,9.5l-37.1,19.277,39.566-13.278a52.14,52.14,0,0,1-8.4,48.942,52.115,52.115,0,1,1-81.869,0,52.114,52.114,0,0,1,0-64.446Z" transform="translate(-182.88 -246.103)" fill="#6c63ff"/>
      <path id="Caminho_586" data-name="Caminho 586" d="M287.1,337.467a51.9,51.9,0,0,1-11.155,32.223,52.115,52.115,0,1,1-81.869,0C187.045,360.826,287.1,331.622,287.1,337.467Z" transform="translate(-182.875 -220.808)" opacity="0.1"/>
    </g>
    <ellipse id="Elipse_163" data-name="Elipse 163" cx="701" cy="11.334" rx="701" ry="11.334" transform="translate(0 619.577)" fill="#6c63ff" opacity="0.1"/>
    <ellipse id="Elipse_164" data-name="Elipse 164" cx="701" cy="11.334" rx="701" ry="11.334" transform="translate(0 712.639)" fill="#6c63ff" opacity="0.1"/>
    <ellipse id="Elipse_165" data-name="Elipse 165" cx="701" cy="11.334" rx="701" ry="11.334" transform="translate(0 425.356)" fill="#6c63ff" opacity="0.1"/>
    <ellipse id="Elipse_166" data-name="Elipse 166" cx="701" cy="11.334" rx="701" ry="11.334" transform="translate(0 522.46)" fill="#6c63ff" opacity="0.1"/>
    <path id="Caminho_587" data-name="Caminho 587" d="M876.1,279.8a23.409,23.409,0,0,0-13.559,1.484,20.019,20.019,0,0,1-16.3,0,22.872,22.872,0,0,0-19.188.371,11.82,11.82,0,0,1-5.513,1.382c-7.777,0-14.237-7.829-15.581-18.152A15.2,15.2,0,0,0,809.8,260.7c4.554-7.343,11.6-12.063,19.533-12.063s14.89,4.656,19.444,11.922a14.941,14.941,0,0,0,12.907,7.087h.2C868.142,267.585,873.5,272.548,876.1,279.8Z" transform="translate(158.503 -138.516)" fill="#6c63ff" opacity="0.1"/>
    <path id="Caminho_588" data-name="Caminho 588" d="M899.782,253.678l-12.562,7.957,7.675-13.866a12.409,12.409,0,0,0-7.6-2.7h-.2a14.525,14.525,0,0,1-2.558-.192l-4.324,2.7,1.829-3.326a15.082,15.082,0,0,1-7.458-5.654l-7.675,4.835,4.81-8.75c-4.452-5.347-10.464-8.622-17.065-8.622-7.931,0-14.979,4.707-19.546,12.05a14.6,14.6,0,0,1-12.907,6.959h-.422c-8.75,0-15.837,9.914-15.837,22.143s7.087,22.156,15.837,22.156a12.012,12.012,0,0,0,5.513-1.382,22.846,22.846,0,0,1,19.188-.384,19.891,19.891,0,0,0,16.3,0,22.923,22.923,0,0,1,19.009.371,11.9,11.9,0,0,0,5.449,1.356c8.75,0,15.836-9.927,15.836-22.156a28.052,28.052,0,0,0-3.287-13.5Z" transform="translate(158.498 -144.82)" fill="#6c63ff" opacity="0.1"/>
    <path id="Caminho_589" data-name="Caminho 589" d="M453.97,272.35a16.425,16.425,0,0,0-9.5,1.036,13.969,13.969,0,0,1-11.4,0,15.964,15.964,0,0,0-13.419.269,8.469,8.469,0,0,1-3.838.959c-5.437,0-9.965-5.475-10.911-12.7a10.641,10.641,0,0,0,2.725-2.929c3.185-5.117,8.123-8.443,13.675-8.443s10.425,3.262,13.611,8.34a10.477,10.477,0,0,0,9.044,4.963h.141C448.393,263.818,452.141,267.3,453.97,272.35Z" transform="translate(46.529 -137.986)" fill="#6c63ff" opacity="0.1"/>
    <path id="Caminho_590" data-name="Caminho 590" d="M470.541,254.081l-8.788,5.577,5.334-9.709a8.635,8.635,0,0,0-5.309-1.893h-.154a9.582,9.582,0,0,1-1.816-.141l-2.98,1.893,1.279-2.328a10.618,10.618,0,0,1-5.219-3.953l-5.334,3.377,3.377-6.115a15.619,15.619,0,0,0-11.948-6.051c-5.552,0-10.489,3.3-13.675,8.443a10.234,10.234,0,0,1-9.044,4.874h-.294c-6.127,0-11.091,6.933-11.091,15.5s4.963,15.5,11.091,15.5a8.315,8.315,0,0,0,3.838-.972,15.99,15.99,0,0,1,13.406-.256,13.739,13.739,0,0,0,11.41.077,16.041,16.041,0,0,1,13.3.256,8.29,8.29,0,0,0,3.838.947c6.115,0,11.078-6.946,11.078-15.5A19.61,19.61,0,0,0,470.541,254.081Z" transform="translate(46.523 -142.397)" fill="#6c63ff" opacity="0.1"/>
    <path id="Caminho_591" data-name="Caminho 591" d="M321.59,350.76a16.4,16.4,0,0,1,9.492,1.036,13.994,13.994,0,0,0,11.41,0,16.015,16.015,0,0,1,13.419.256,8.276,8.276,0,0,0,3.838.972c5.437,0,9.965-5.488,10.9-12.715a10.425,10.425,0,0,1-2.712-2.929c-3.2-5.117-8.136-8.43-13.675-8.43s-10.425,3.249-13.623,8.34a10.477,10.477,0,0,1-9.031,4.963h-.141C327.155,342.279,323.394,345.746,321.59,350.76Z" transform="translate(23.269 -116.094)" fill="#6c63ff" opacity="0.1"/>
    <path id="Caminho_592" data-name="Caminho 592" d="M309.125,332.519l8.8,5.577-5.347-9.7a8.685,8.685,0,0,1,5.321-1.906h.141a10.9,10.9,0,0,0,1.829-.128l2.98,1.88-1.279-2.315a10.605,10.605,0,0,0,5.206-3.953l5.334,3.377-3.326-6.127a15.606,15.606,0,0,1,11.948-6.038c5.539,0,10.489,3.3,13.675,8.443a10.233,10.233,0,0,0,9.031,4.874h.307c6.115,0,11.078,6.946,11.078,15.5s-4.963,15.5-11.078,15.5a8.3,8.3,0,0,1-3.838-.959,15.964,15.964,0,0,0-13.419-.269,13.892,13.892,0,0,1-5.731,1.279,14.071,14.071,0,0,1-5.68-1.2,16.015,16.015,0,0,0-13.291.256,8.289,8.289,0,0,1-3.838.947c-6.127,0-11.091-6.933-11.091-15.5a19.752,19.752,0,0,1,2.264-9.543Z" transform="translate(19.155 -120.494)" fill="#6c63ff" opacity="0.1"/>
    <path id="Caminho_593" data-name="Caminho 593" d="M719.443,682.619c3.339-6.191-.448-13.764-4.8-19.277s-9.671-11.257-9.556-18.28c.166-10.093,10.886-16.067,19.444-21.414A95.048,95.048,0,0,0,742,609.577a25.75,25.75,0,0,0,5.36-7.189c1.778-3.94,1.727-8.443,1.612-12.792q-.55-21.606-2.136-43.186" transform="translate(130.34 -55.38)" fill="none" stroke="#3f3d56" stroke-miterlimit="10" stroke-width="4"/>
    <path id="Caminho_594" data-name="Caminho 594" d="M757.32,549.128a15.747,15.747,0,0,0-7.867-12.907l-3.531,6.972.115-8.443a15.747,15.747,0,1,0,11.282,14.378Z" transform="translate(136.135 -58.814)" fill="#6c63ff"/>
    <path id="Caminho_595" data-name="Caminho 595" d="M734.983,634.15a15.747,15.747,0,0,1-29.728-6.4,15.35,15.35,0,0,1,1.023-6.4,15.76,15.76,0,0,1,29.422.166l-9.837,8.008,10.822-2.558A15.658,15.658,0,0,1,734.983,634.15Z" transform="translate(130.381 -37.253)" fill="#6c63ff"/>
    <path id="Caminho_596" data-name="Caminho 596" d="M726.009,612.142a15.747,15.747,0,0,1-4.989-30.893l-.09,6.486,3.569-7.061h0a15.751,15.751,0,1,1,1.471,31.468Z" transform="translate(131.578 -45.818)" fill="#6c63ff"/>
    <path id="Caminho_597" data-name="Caminho 597" d="M755.914,592.249a15.747,15.747,0,1,1,6.959-29.421L760.1,570.5l5.667-5.6a15.747,15.747,0,0,1-9.9,27.336Z" transform="translate(139.907 -51.369)" fill="#6c63ff"/>
    <path id="Caminho_598" data-name="Caminho 598" d="M755.2,551.439c-3.633.4-7.163,1.522-10.822,1.753s-7.675-.652-9.952-3.479a50.489,50.489,0,0,1-2.917-5.117,11.206,11.206,0,0,0-3.965-3.735,15.747,15.747,0,1,0,29.422,10.464C756.392,551.337,755.79,551.375,755.2,551.439Z" transform="translate(136.13 -56.929)" opacity="0.1"/>
    <path id="Caminho_599" data-name="Caminho 599" d="M755.9,590.283A15.747,15.747,0,0,1,740.92,567.82a11.654,11.654,0,0,1,3.16,3.172A53.362,53.362,0,0,0,747.2,576.2c2.456,2.878,6.652,3.838,10.451,3.646s7.471-1.279,11.257-1.6c.524,0,1.049-.077,1.586-.09a15.747,15.747,0,0,1-14.6,12.127Z" transform="translate(139.922 -49.402)" opacity="0.1"/>
    <path id="Caminho_600" data-name="Caminho 600" d="M726.008,610.109A15.747,15.747,0,0,1,710.9,587.94a12.792,12.792,0,0,1,3.339,3.2,52.758,52.758,0,0,0,3.416,5.309c2.648,2.955,7.125,4,11.142,3.838s7.675-1.036,11.513-1.279a15.772,15.772,0,0,1-14.3,11.1Z" transform="translate(131.579 -43.785)" opacity="0.1"/>
    <path id="Caminho_601" data-name="Caminho 601" d="M734.983,631.962a15.747,15.747,0,0,1-29.728-6.4,15.349,15.349,0,0,1,1.023-6.4,15.721,15.721,0,0,1,3.454,3.083c1.5,1.816,2.482,3.838,4.221,5.59,3.211,3.16,8.417,4.464,13.035,4.58A66.158,66.158,0,0,0,734.983,631.962Z" transform="translate(130.381 -35.065)" opacity="0.1"/>
    <path id="Caminho_602" data-name="Caminho 602" d="M109.443,610.619c3.339-6.191-.448-13.764-4.8-19.278s-9.671-11.283-9.556-18.28c.166-10.093,10.886-16.067,19.444-21.414A95.046,95.046,0,0,0,132,537.577a25.752,25.752,0,0,0,5.36-7.189c1.778-3.94,1.727-8.443,1.612-12.792q-.563-21.606-2.136-43.186" transform="translate(-39.97 -75.482)" fill="none" stroke="#3f3d56" stroke-miterlimit="10" stroke-width="4"/>
    <path id="Caminho_603" data-name="Caminho 603" d="M147.32,477.128a15.747,15.747,0,0,0-7.867-12.907l-3.531,6.972.115-8.443a15.747,15.747,0,1,0,11.283,14.378Z" transform="translate(-34.175 -78.917)" fill="#6c63ff"/>
    <path id="Caminho_604" data-name="Caminho 604" d="M124.983,562.15a15.747,15.747,0,0,1-29.729-6.4,15.351,15.351,0,0,1,1.023-6.4,15.76,15.76,0,0,1,29.422.166l-9.837,8.008,10.822-2.558a15.658,15.658,0,0,1-1.7,7.176Z" transform="translate(-39.93 -57.355)" fill="#6c63ff"/>
    <path id="Caminho_605" data-name="Caminho 605" d="M116.009,540.142a15.747,15.747,0,0,1-4.989-30.893l-.09,6.485,3.569-7.061h0a15.751,15.751,0,1,1,1.471,31.468Z" transform="translate(-38.733 -65.92)" fill="#6c63ff"/>
    <path id="Caminho_606" data-name="Caminho 606" d="M145.914,520.249a15.747,15.747,0,1,1,6.959-29.422L150.1,498.5l5.667-5.6a15.747,15.747,0,0,1-9.9,27.336Z" transform="translate(-30.403 -71.471)" fill="#6c63ff"/>
    <path id="Caminho_607" data-name="Caminho 607" d="M145.2,479.439c-3.633.4-7.163,1.522-10.822,1.753s-7.675-.652-9.952-3.479a50.5,50.5,0,0,1-2.917-5.117,11.206,11.206,0,0,0-3.966-3.735,15.747,15.747,0,1,0,29.422,10.464C146.392,479.337,145.79,479.375,145.2,479.439Z" transform="translate(-34.181 -77.031)" opacity="0.1"/>
    <path id="Caminho_608" data-name="Caminho 608" d="M145.9,518.283A15.747,15.747,0,0,1,130.92,495.82a11.655,11.655,0,0,1,3.16,3.172A53.362,53.362,0,0,0,137.2,504.2c2.456,2.878,6.652,3.838,10.451,3.646s7.471-1.279,11.257-1.6c.524,0,1.049-.077,1.586-.09A15.747,15.747,0,0,1,145.9,518.283Z" transform="translate(-30.388 -69.504)" opacity="0.1"/>
    <path id="Caminho_609" data-name="Caminho 609" d="M116.008,538.109A15.747,15.747,0,0,1,100.9,515.94a12.793,12.793,0,0,1,3.339,3.2,52.746,52.746,0,0,0,3.415,5.309c2.648,2.955,7.125,4,11.142,3.838s7.675-1.036,11.513-1.279A15.773,15.773,0,0,1,116.008,538.109Z" transform="translate(-38.731 -63.887)" opacity="0.1"/>
    <path id="Caminho_610" data-name="Caminho 610" d="M124.983,559.962a15.747,15.747,0,0,1-29.729-6.4,15.351,15.351,0,0,1,1.023-6.4,15.726,15.726,0,0,1,3.454,3.083c1.5,1.816,2.482,3.838,4.221,5.59,3.211,3.16,8.417,4.464,13.035,4.58A66.135,66.135,0,0,0,124.983,559.962Z" transform="translate(-39.93 -55.167)" opacity="0.1"/>
    <path id="Caminho_611" data-name="Caminho 611" d="M518.973,528.243c-3.339-6.178.448-13.751,4.81-19.265s9.658-11.257,9.543-18.28c-.154-10.106-10.873-16.067-19.444-21.414a94.661,94.661,0,0,1-17.448-14.071,25.3,25.3,0,0,1-5.373-7.176c-1.765-3.953-1.714-8.443-1.612-12.792q.576-21.606,2.136-43.186" transform="translate(70.123 -98.474)" fill="none" stroke="#3f3d56" stroke-miterlimit="10" stroke-width="4"/>
    <path id="Caminho_612" data-name="Caminho 612" d="M478.394,394.768a15.734,15.734,0,0,1,7.854-12.907l3.531,6.972-.1-8.443a16.145,16.145,0,0,1,5.181-.627,15.747,15.747,0,1,1-16.463,15.005Z" transform="translate(67.043 -101.911)" fill="#6c63ff"/>
    <path id="Caminho_613" data-name="Caminho 613" d="M500.72,479.817a15.747,15.747,0,1,0-.755-12.677l9.837,8.008L498.98,472.59a15.658,15.658,0,0,0,1.74,7.227Z" transform="translate(72.796 -80.378)" fill="#6c63ff"/>
    <path id="Caminho_614" data-name="Caminho 614" d="M509.7,457.783a15.747,15.747,0,0,0,5-30.893l.077,6.486-3.569-7.061h0a15.747,15.747,0,0,0-16.5,14.954,15.555,15.555,0,0,0,.678,5.373A15.734,15.734,0,0,0,509.7,457.782Z" transform="translate(71.596 -88.915)" fill="#6c63ff"/>
    <path id="Caminho_615" data-name="Caminho 615" d="M479.825,437.869a15.747,15.747,0,1,0-6.972-29.422l2.789,7.675-5.731-5.488a15.619,15.619,0,0,0-5.117,10.873,15.233,15.233,0,0,0,.4,4.336,15.734,15.734,0,0,0,14.634,12.024Z" transform="translate(63.245 -94.471)" fill="#6c63ff"/>
    <path id="Caminho_616" data-name="Caminho 616" d="M480.435,397.079c3.633.4,7.164,1.522,10.809,1.753s7.675-.652,9.965-3.479a50.379,50.379,0,0,0,2.9-5.117,11.244,11.244,0,0,1,3.978-3.735,15.747,15.747,0,1,1-29.422,10.451C479.246,396.964,479.834,397.015,480.435,397.079Z" transform="translate(67.125 -100.026)" opacity="0.1"/>
    <path id="Caminho_617" data-name="Caminho 617" d="M479.726,435.9A15.76,15.76,0,0,0,494.7,413.44a11.706,11.706,0,0,0-3.172,3.172,53.361,53.361,0,0,1-3.121,5.206c-2.443,2.878-6.639,3.838-10.438,3.646s-7.471-1.279-11.257-1.6c-.524,0-1.062-.077-1.586-.09a15.734,15.734,0,0,0,14.6,12.127Z" transform="translate(63.345 -92.504)" opacity="0.1"/>
    <path id="Caminho_618" data-name="Caminho 618" d="M509.541,455.749a15.734,15.734,0,0,0,15.107-22.169,12.575,12.575,0,0,0-3.326,3.2,52.739,52.739,0,0,1-3.415,5.309c-2.661,2.955-7.125,4-11.155,3.838s-7.675-1.036-11.513-1.279a15.734,15.734,0,0,0,14.3,11.1Z" transform="translate(71.751 -86.881)" opacity="0.1"/>
    <path id="Caminho_619" data-name="Caminho 619" d="M500.34,477.6a15.747,15.747,0,0,0,28.718-12.792,15.122,15.122,0,0,0-3.454,3.083c-1.5,1.817-2.558,3.838-4.221,5.59-3.224,3.16-8.417,4.464-13.048,4.58A69.025,69.025,0,0,1,500.34,477.6Z" transform="translate(73.175 -78.162)" opacity="0.1"/>
    <circle id="Elipse_167" data-name="Elipse 167" cx="127.869" cy="127.869" r="127.869" transform="translate(869.56 176.911)" fill="#3f3d56"/>
    <path id="Caminho_620" data-name="Caminho 620" d="M899.341,446.508c-4.452-4.452-15.158-11.167-20.467-13.675-6.127-2.942-8.379-2.891-12.715.243-3.607,2.558-5.948,5.027-10.093,4.119s-12.357-7.1-20.3-15.018-14.11-16.079-14.992-20.288,1.548-6.5,4.132-10.106c3.121-4.336,3.211-6.588.243-12.715-2.558-5.309-9.2-15.99-13.687-20.467s-5.462-3.492-7.918-2.558a45.794,45.794,0,0,0-7.253,3.838c-4.452,2.98-6.946,5.462-8.7,9.2s-3.735,10.669,6.46,28.82a160.781,160.781,0,0,0,28.27,37.7h0a161.022,161.022,0,0,0,37.826,28.321c18.139,10.234,25.085,8.2,28.82,6.46s6.217-4.209,9.185-8.7a45.2,45.2,0,0,0,3.838-7.253C902.833,451.971,903.831,450.973,899.341,446.508Z" transform="translate(152.978 -108.751)" fill="#6c63ff"/>
    <path id="Caminho_621" data-name="Caminho 621" d="M859.664,300.86A127.92,127.92,0,1,0,987.519,428.737,127.92,127.92,0,0,0,859.664,300.86Zm0,238.724A110.868,110.868,0,1,1,970.532,428.716,110.868,110.868,0,0,1,859.664,539.584Z" transform="translate(137.765 -123.936)" opacity="0.1"/>
    <circle id="Elipse_168" data-name="Elipse 168" cx="127.869" cy="127.869" r="127.869" transform="translate(575.792 371.131)" fill="#3f3d56"/>
    <path id="Caminho_622" data-name="Caminho 622" d="M690.951,522.5l-38.286,38.952a.691.691,0,0,0,0,1l26.863,28.564a4.622,4.622,0,1,1-6.537,6.537l-26.722-28.462a.729.729,0,0,0-1.023,0l-6.511,6.575a28.616,28.616,0,0,1-20.467,8.609,29.243,29.243,0,0,1-20.825-8.852l-6.255-6.4a.729.729,0,0,0-1.023,0l-26.658,28.4a4.622,4.622,0,1,1-6.537-6.537l26.761-28.5a.768.768,0,0,0,0-1l-38.286-38.952a.7.7,0,0,0-1.2.5v77.942a11.411,11.411,0,0,0,11.372,11.372h125.2a11.41,11.41,0,0,0,11.372-11.372V523a.7.7,0,0,0-1.228-.5Z" transform="translate(85.432 -62.131)" fill="#6c63ff"/>
    <path id="Caminho_623" data-name="Caminho 623" d="M617.277,577.7a19.367,19.367,0,0,0,13.969-5.756l55.76-56.758a11.129,11.129,0,0,0-7.036-2.558H554.686a11.052,11.052,0,0,0-7.036,2.558l55.773,56.758A19.29,19.29,0,0,0,617.277,577.7Z" transform="translate(86.384 -64.811)" fill="#6c63ff"/>
    <path id="Caminho_624" data-name="Caminho 624" d="M628.754,452.69A127.92,127.92,0,1,0,756.609,580.567,127.92,127.92,0,0,0,628.754,452.69Zm0,238.724A110.868,110.868,0,1,1,739.622,580.546,110.868,110.868,0,0,1,628.754,691.414Z" transform="translate(73.295 -81.546)" opacity="0.1"/>
    <circle id="Elipse_169" data-name="Elipse 169" cx="127.869" cy="127.869" r="127.869" transform="translate(272.328 275.639)" fill="#3f3d56"/>
    <path id="Caminho_625" data-name="Caminho 625" d="M375.976,430.16,325,547.769l4.759,4.759,46.23-20.39,46.23,20.391,4.759-4.759Z" transform="translate(24.221 -87.836)" fill="#6c63ff"/>
    <path id="Caminho_626" data-name="Caminho 626" d="M392.784,378a127.845,127.845,0,1,0,.021,0Zm0,238.724a91.244,91.244,0,1,1,.013.051Z" transform="translate(7.413 -102.399)" opacity="0.1"/>
    <path id="Caminho_627" data-name="Caminho 627" d="M854.257,616q-1.74-4.247-3.569-8.468A25.136,25.136,0,0,0,846.326,600a7.984,7.984,0,0,0-2.558-1.919,10.912,10.912,0,0,0-3.339-.665,26.649,26.649,0,0,0-5.245-.141c-.678-.2-1.445-.473-2.2-.78a18.267,18.267,0,0,0,13.611-16.949c0-.256,0-.524,0-.78a18.229,18.229,0,0,0-18.152-18.305,17.909,17.909,0,0,0-9.53,2.725,17.1,17.1,0,0,0-19.188,9.248,21.145,21.145,0,0,0-6.524,15.734c0,.269,0,.55,0,.806.333,9.939,6.754,17.909,14.864,18.715a8.524,8.524,0,0,0-2.354,1.573c-2.482,2.392-2.891,6.191-3.159,9.645l-.192,2.558-4.3,1.535a.793.793,0,0,0-.192,1.394l4.106,2.929v.729a3.2,3.2,0,0,0,.077.832,5.871,5.871,0,0,0-1.586,2.264,10.463,10.463,0,0,0-.371,4.144l.153,3.569a28.025,28.025,0,0,0,1.087,7.944c.537,1.586,2.865,5.411,4.541,5.437-1.548,7.036-1.957,21.874-1.957,21.874-.192.192.345.371,1.279.524.921,7.061,3.927,26.863,9.261,35.575a74.983,74.983,0,0,1,2.008,8.647S817.992,737.68,820,743.27c1.714,4.759,3.07,16.5,3.441,19.9a1.957,1.957,0,0,0-1.42,1.458c-1.01,3.044-7.56,7.675-7.56,7.675a31.674,31.674,0,0,0-5.654,3.62c-2.059,1.855-1.983,3.531,7.163,2.482,17.653-2.034,20.672-7.675,20.672-7.675s-.281-.947-.7-2.175a23.615,23.615,0,0,0-2.315-5.462c-.256-.243-.512.166-.819.806a109.533,109.533,0,0,1-1.2-24.7s.5-8.647-2.021-14.749a27.923,27.923,0,0,1,0-9.658c1.01-4.068-4.03-23.908-4.03-23.908l-2.891-14.608a4.2,4.2,0,0,1,.806,1.7l.077.294.077.422a.793.793,0,0,0,.2.4c1.97,8.187,7.368,30.867,7.368,34.193,0,4.068,5.04,14.237,5.04,14.237s2.008,16.783,5.539,23.384c2.686,5.027,2.75,12.4,2.622,15.645h0s-.6,4.183-1.612,5.194a12.362,12.362,0,0,0-1.906,3.313l-.115.243s-1.509,3.057-.5,3.569a24.778,24.778,0,0,0,12.1,1.522s2.021-2.558,2.021-3.556a16,16,0,0,0-.23-1.817c-.371-2.4-1.062-6.191-1.074-6.23.422-1.637-1.279-6.191-1.279-6.191l-.512-14.237a65.728,65.728,0,0,0-3.531-28.488s-2.558-9.146-2.008-11.692-1.011-29.5-1.011-29.5l-.153-.384a29.134,29.134,0,0,1,.153-5.718c.5-6.1-1.509-18.817-2.021-19.316a16.766,16.766,0,0,1-.716-4.209c.115-1.062.46-4.17.934-8.033a144.4,144.4,0,0,0,14.864-1.279,1.855,1.855,0,0,0,1.279-.512,1.791,1.791,0,0,0,.294-1.036C859.962,630.534,857.161,623.089,854.257,616Zm-10.144,16.131c.524-3.646,1.087-7.176,1.65-9.8l.077.23a71.172,71.172,0,0,1,2.43,8.059A27.417,27.417,0,0,1,844.113,632.133Z" transform="translate(154.94 -51.457)" fill="url(#linear-gradient)"/>
    <path id="Caminho_628" data-name="Caminho 628" d="M802.37,648.9s3.019,27.157,9.556,37.711a73.192,73.192,0,0,1,2.008,8.545s1.51,18.6,3.518,24.126S820.97,739.9,820.97,739.9s7.036,8.033,9.556,1.51a105.945,105.945,0,0,1-1.51-26.147s.5-8.545-2.008-14.583a27.272,27.272,0,0,1,0-9.543c1-4.029-4.03-23.627-4.03-23.627l-4.017-19.61Z" transform="translate(157.501 -27.044)" fill="#be6f72"/>
    <path id="Caminho_629" data-name="Caminho 629" d="M833.425,726.594s-3.019,5.526-20.608,7.534c-9.134,1.036-9.2-.614-7.138-2.456a31.838,31.838,0,0,1,5.629-3.582s6.537-4.516,7.534-7.534,4.528-.5,4.528-.5c5.027,7.534,6.038-2.021,7.036-1.011a22.686,22.686,0,0,1,2.315,5.385C833.144,725.647,833.425,726.594,833.425,726.594Z" transform="translate(158.119 -7.201)" fill="#ff6f61"/>
    <path id="Caminho_630" data-name="Caminho 630" d="M833.425,725.4s-3.019,5.526-20.608,7.534c-9.134,1.036-9.2-.614-7.138-2.456,1.433.908,4.324,1.279,10.144-1.062,8.379-3.428,14.455-5.411,16.9-6.179C833.144,724.455,833.425,725.4,833.425,725.4Z" transform="translate(158.119 -6.009)" opacity="0.1"/>
    <path id="Caminho_631" data-name="Caminho 631" d="M826.154,715.263s.5-8.545-2.008-14.583a27.269,27.269,0,0,1,0-9.543c1-4.03-4.03-23.627-4.03-23.627L816.1,647.9l-3.479.2L816.6,667.51s5.027,19.6,4.03,23.627a27.269,27.269,0,0,0,0,9.543c2.558,6.038,2.008,14.583,2.008,14.583a105.939,105.939,0,0,0,1.509,26.147,4.4,4.4,0,0,1-1.458,2.072c1.868.844,3.838.806,4.976-2.072A105.945,105.945,0,0,1,826.154,715.263Z" transform="translate(160.363 -27.044)" opacity="0.1"/>
    <path id="Caminho_632" data-name="Caminho 632" d="M828.322,562.42a17.91,17.91,0,0,0-9.492,2.7,17.078,17.078,0,0,0-19.188,9.146,20.825,20.825,0,0,0-6.511,15.555c0,10.694,7.2,19.354,16.08,19.354,6.4,0,12-4.554,14.57-11.142a17.654,17.654,0,0,0,4.528.588,18.1,18.1,0,1,0,0-36.2Z" transform="translate(154.92 -50.91)" fill="#3f3d56"/>
    <path id="Caminho_633" data-name="Caminho 633" d="M836.646,650.65l1.509,4.017s1.51,26.646,1,29.166,2.021,11.513,2.021,11.513a64.355,64.355,0,0,1,3.518,28.142l.5,14.071s2.008,5.526,1.011,6.537-8.583-.9-8.583-.9,1.01-10.553-2.558-17.09-5.526-23.128-5.526-23.128-5.027-10.054-5.027-14.071-8.046-36.7-8.046-36.7Z" transform="translate(161.435 -26.276)" fill="#be6f72"/>
    <path id="Caminho_634" data-name="Caminho 634" d="M801.588,657.167s.512-18.1,2.558-23.627a37.518,37.518,0,0,0,2.239-8.021s30.432,5.5,32.952,3.492c0,0,.5,7.036,1.01,7.534s2.558,13.073,2.008,19.111,0,6.025,0,6.025-20.621,3.019-21.12,0-2.008-3.006-2.008-3.006S800.591,658.114,801.588,657.167Z" transform="translate(157.272 -33.292)" fill="#3f3d56"/>
    <g id="Grupo_65" data-name="Grupo 65" transform="translate(958.86 595.72)" opacity="0.1">
      <path id="Caminho_635" data-name="Caminho 635" d="M818.171,650.486s-12.715-.345-16.553-1.036v1.036c-1,1,17.6,1.509,17.6,1.509a1.278,1.278,0,0,1,.691.281C819.233,650.486,818.171,650.486,818.171,650.486Z" transform="translate(-801.58 -622.331)"/>
      <path id="Caminho_636" data-name="Caminho 636" d="M836.055,635.784c-.512-.5-1.011-7.534-1.011-7.534a2.163,2.163,0,0,1-.857.307c.179,2.123.525,5.385.857,5.718s2.558,13.073,2.008,19.111,0,6.025,0,6.025-16.31,2.392-20.263.793a6.073,6.073,0,0,0,.154.716c.5,3.019,21.12,0,21.12,0s-.512,0,0-6.025S836.554,636.3,836.055,635.784Z" transform="translate(-797.333 -628.25)"/>
      <path id="Caminho_637" data-name="Caminho 637" d="M818.171,650.486s-12.715-.345-16.553-1.036v1.036c-1,1,17.6,1.509,17.6,1.509a1.278,1.278,0,0,1,.691.281C819.233,650.486,818.171,650.486,818.171,650.486Z" transform="translate(-801.58 -622.331)"/>
      <path id="Caminho_638" data-name="Caminho 638" d="M836.055,635.784c-.512-.5-1.011-7.534-1.011-7.534a2.163,2.163,0,0,1-.857.307c.179,2.123.525,5.385.857,5.718s2.558,13.073,2.008,19.111,0,6.025,0,6.025-16.31,2.392-20.263.793a6.073,6.073,0,0,0,.154.716c.5,3.019,21.12,0,21.12,0s-.512,0,0-6.025S836.554,636.3,836.055,635.784Z" transform="translate(-797.333 -628.25)"/>
    </g>
    <path id="Caminho_639" data-name="Caminho 639" d="M821.262,588.308a6.664,6.664,0,0,0,1.919,2.482,4.3,4.3,0,0,0,1.8.78c-1.126.652-2.354,1.139-3.479,1.791a61.852,61.852,0,0,0-5.117,3.838,10.412,10.412,0,0,1-5.872,2.277,7.19,7.19,0,0,0,.819-7.151,6.677,6.677,0,0,1-.9-2.482c0-1.446,1.279-2.558,2.469-3.326.959-.652,1.944-1.279,2.942-1.906.78-.486,1.957-1.509,2.942-1.471s1.1.908,1.279,1.8A14.181,14.181,0,0,0,821.262,588.308Z" transform="translate(159.754 -45.125)" fill="#be6f72"/>
    <path id="Caminho_640" data-name="Caminho 640" d="M821.262,588.308a6.664,6.664,0,0,0,1.919,2.482,4.3,4.3,0,0,0,1.8.78c-1.126.652-2.354,1.139-3.479,1.791a61.852,61.852,0,0,0-5.117,3.838,10.412,10.412,0,0,1-5.872,2.277,7.19,7.19,0,0,0,.819-7.151,6.677,6.677,0,0,1-.9-2.482c0-1.446,1.279-2.558,2.469-3.326.959-.652,1.944-1.279,2.942-1.906.78-.486,1.957-1.509,2.942-1.471s1.1.908,1.279,1.8A14.181,14.181,0,0,0,821.262,588.308Z" transform="translate(159.754 -45.125)" opacity="0.1"/>
    <circle id="Elipse_170" data-name="Elipse 170" cx="11.564" cy="11.564" r="11.564" transform="translate(981.234 549.72)" fill="#be6f72"/>
    <path id="Caminho_641" data-name="Caminho 641" d="M844.027,732.25c0,1.011-2.008,3.518-2.008,3.518a24.893,24.893,0,0,1-12.063-1.51c-1.01-.5.5-3.518.5-3.518l.115-.243a12.2,12.2,0,0,1,1.906-3.275c1-1,1.6-5.117,1.6-5.117,3.121-5.117,8.66,2.213,8.66,2.213s.7,3.838,1.074,6.166A17.5,17.5,0,0,1,844.027,732.25Z" transform="translate(165.106 -6.832)" fill="#ff6f61"/>
    <path id="Caminho_642" data-name="Caminho 642" d="M844.027,730.031c0,1.011-2.008,3.518-2.008,3.518a24.893,24.893,0,0,1-12.063-1.51c-1.01-.5.5-3.518.5-3.518l.115-.243a24.3,24.3,0,0,0,10.95,2.251l2.29-2.29C843.938,729.1,844.027,729.775,844.027,730.031Z" transform="translate(165.106 -4.613)" opacity="0.1"/>
    <circle id="Elipse_171" data-name="Elipse 171" cx="11.308" cy="11.308" r="11.308" transform="translate(958.362 525.837)" fill="#be6f72"/>
    <path id="Caminho_643" data-name="Caminho 643" d="M803.7,600.8c-2.482,2.366-2.891,6.115-3.147,9.53l-.384,5a25.237,25.237,0,0,0-.089,4.055c0,.831.2,1.676.281,2.558s.1,2,.115,3.006v7.394a8.723,8.723,0,0,0,.819,4.439,3.019,3.019,0,0,0,3.838,1.382,4.375,4.375,0,0,0,1.586-2.456,38.183,38.183,0,0,0,2.558-9.364c.1-1.113.115-2.226.217-3.339s.294-2.277.461-3.4c.716-4.708,1.036-9.466,1.356-14.212.089-1.407,1.356-6.946-.486-7.56-.9-.294-2.75.627-3.607.934A10.155,10.155,0,0,0,803.7,600.8Z" transform="translate(156.85 -41.039)" fill="#be6f72"/>
    <path id="Caminho_644" data-name="Caminho 644" d="M803.7,600.8c-2.482,2.366-2.891,6.115-3.147,9.53l-.384,5a25.237,25.237,0,0,0-.089,4.055c0,.831.2,1.676.281,2.558s.1,2,.115,3.006v7.394a8.723,8.723,0,0,0,.819,4.439,3.019,3.019,0,0,0,3.838,1.382,4.375,4.375,0,0,0,1.586-2.456,38.183,38.183,0,0,0,2.558-9.364c.1-1.113.115-2.226.217-3.339s.294-2.277.461-3.4c.716-4.708,1.036-9.466,1.356-14.212.089-1.407,1.356-6.946-.486-7.56-.9-.294-2.75.627-3.607.934A10.155,10.155,0,0,0,803.7,600.8Z" transform="translate(156.85 -41.039)" opacity="0.1"/>
    <path id="Caminho_645" data-name="Caminho 645" d="M825.909,588.16s-8.545,6.537-13.572,8.046c0,0-2.981,3.4-3.492,4.221s-1.535,9.85-2.558,11.871-3.518,6.537,0,11.052c0,0,1,4.528.5,6.038s-2.328,7.036-.665,7.291,6.7,3.761,11.219,2.763,21.375,3.838,21.375,3.838,2.789-25.9,4.81-30.483L839,611.288s-12.562-7.534-5.027-19.1C833.956,592.19,826.894,590.68,825.909,588.16Z" transform="translate(158.087 -43.723)" fill="#ff6f61"/>
    <path id="Caminho_646" data-name="Caminho 646" d="M796.91,612.541,807.3,619.9a.768.768,0,0,0,.908,0l2.814-2.111a.793.793,0,0,0,0-1.2l-7.995-7.1a.767.767,0,0,0-.78-.154l-5.13,1.842a.78.78,0,0,0-.2,1.369Z" transform="translate(155.887 -37.825)" fill="#3f3d56"/>
    <path id="Caminho_647" data-name="Caminho 647" d="M799.855,633.47a27.84,27.84,0,0,1-1.087-7.841l-.154-3.543a10.233,10.233,0,0,1,.371-4.093,6.69,6.69,0,0,1,4.311-3.774,14.887,14.887,0,0,1,5.871-.422,1.509,1.509,0,0,1,.755.2,1.406,1.406,0,0,1,.409.691,4.63,4.63,0,0,1,.23,3.7,3.835,3.835,0,0,1-1.177,1.215c-1.394,1-3.019,1.663-4.337,2.75a1.574,1.574,0,0,0-.589.742,1.728,1.728,0,0,0,0,.806,12.888,12.888,0,0,0,.665,2.059,2.034,2.034,0,0,0,.576.87c.243.2.563.281.819.473.55.448,1.7,1.036,1.637,1.74-.192,2.558-1.727,5.424-2.328,7.957C804.677,641.951,800.6,635.632,799.855,633.47Z" transform="translate(156.435 -36.599)" fill="#be6f72"/>
    <g id="Grupo_66" data-name="Grupo 66" transform="translate(972.164 568.32)" opacity="0.1">
      <path id="Caminho_648" data-name="Caminho 648" d="M812.261,628.276h-.281a8.612,8.612,0,0,0,3.288,0h.32a11.514,11.514,0,0,0-3.326,0Z" transform="translate(-811.98 -600.876)"/>
      <path id="Caminho_649" data-name="Caminho 649" d="M833.908,606.83c-1.8,4.055-4.464,26.019-4.938,30.381,1.765.461,2.929.793,2.929.793s2.763-25.84,4.784-30.419Z" transform="translate(-807.236 -606.83)"/>
    </g>
    <path id="Caminho_650" data-name="Caminho 650" d="M833.03,604.62a3.838,3.838,0,0,0,1.65,2.494,22.14,22.14,0,0,1,2.929,2.968,21.015,21.015,0,0,1,2.9,5.82,71.332,71.332,0,0,1,2.418,7.957c-6.4,2.968-13.662,2.827-20.467,4.784a16.336,16.336,0,0,0-7.675,4.541,10.578,10.578,0,0,0-2.827,8.328.87.87,0,0,0,1.049.857,7.675,7.675,0,0,0,4.695-1.612,22.346,22.346,0,0,0,3.594-3.531,5.782,5.782,0,0,1,2.558-1.893c3.7-1.126,7.675-1.062,11.513-1.126a145.071,145.071,0,0,0,17.154-1.356,1.382,1.382,0,0,0,1.535-1.535c.563-7.547-2.239-14.915-5.117-21.913q-1.727-4.208-3.556-8.379a24.816,24.816,0,0,0-4.349-7.445,7.675,7.675,0,0,0-2.558-1.893,10.819,10.819,0,0,0-3.428-.64,24.306,24.306,0,0,0-5.616-.1,11.973,11.973,0,0,0-.537,2.9c.1,3.454,1.612,6.69,3.1,9.812C832.186,604.134,832.736,604.159,833.03,604.62Z" transform="translate(160.164 -42.978)" fill="#be6f72"/>
    <path id="Caminho_651" data-name="Caminho 651" d="M812.689,606.67a9.377,9.377,0,0,0-1.279,4.887,6.578,6.578,0,0,0,.32,2,6.472,6.472,0,0,0,4.08,3.838" transform="translate(160.025 -38.555)" fill="none" stroke="#000" stroke-miterlimit="10" stroke-width="1" opacity="0.1"/>
    <path id="Caminho_652" data-name="Caminho 652" d="M822.554,574.7a5.872,5.872,0,0,0-1.855.294c-1.676-2.558-5.616-4.324-10.234-4.324-6.115,0-11.065,3.16-11.065,7.048s4.951,7.036,11.065,7.036a15.566,15.566,0,0,0,6.639-1.407,6.025,6.025,0,1,0,5.424-8.647Z" transform="translate(156.672 -48.606)" fill="#3f3d56"/>
    <path id="Caminho_653" data-name="Caminho 653" d="M823.058,584.2a6.013,6.013,0,0,1-5.424-3.417A15.569,15.569,0,0,1,811,582.189c-6.1,0-11.052-3.147-11.052-7.036a4.231,4.231,0,0,1,0-.7,4.771,4.771,0,0,0-.563,2.213c0,3.838,4.95,7.036,11.065,7.036a15.567,15.567,0,0,0,6.639-1.407,6.025,6.025,0,0,0,11.346-1.5,6,6,0,0,1-5.373,3.4Z" transform="translate(156.666 -47.551)" opacity="0.1"/>
    <path id="Caminho_654" data-name="Caminho 654" d="M799.666,577.233a17.077,17.077,0,0,1,19.188-9.146,18.088,18.088,0,0,1,27.528,13.892v-1.51a18.088,18.088,0,0,0-27.592-15.35,17.077,17.077,0,0,0-19.188,9.146,20.825,20.825,0,0,0-6.511,15.555v1.509A20.467,20.467,0,0,1,799.666,577.233Z" transform="translate(154.909 -50.91)" opacity="0.1"/>
    <path id="Caminho_655" data-name="Caminho 655" d="M891.523,606.726c3.339-6.179-.448-13.764-4.81-19.278s-9.658-11.244-9.543-18.28c.154-10.093,10.873-16.054,19.444-21.414a94.535,94.535,0,0,0,17.448-14.071,25.5,25.5,0,0,0,5.373-7.176c1.765-3.953,1.714-8.443,1.612-12.792q-.563-21.618-2.136-43.186" transform="translate(178.385 -76.565)" fill="none" stroke="#3f3d56" stroke-miterlimit="10" stroke-width="4"/>
    <path id="Caminho_656" data-name="Caminho 656" d="M929.39,473.206a15.722,15.722,0,0,0-7.854-12.894l-3.531,6.972.1-8.443a15.452,15.452,0,0,0-5.181-.627,15.747,15.747,0,1,0,16.463,14.992Z" transform="translate(184.177 -80.009)" fill="#6c63ff"/>
    <path id="Caminho_657" data-name="Caminho 657" d="M907.064,558.269a15.747,15.747,0,1,1,.755-12.69l-9.837,8.008,10.822-2.558a15.659,15.659,0,0,1-1.74,7.24Z" transform="translate(178.425 -58.476)" fill="#6c63ff"/>
    <path id="Caminho_658" data-name="Caminho 658" d="M898.092,536.219a15.747,15.747,0,0,1-5-30.893l-.077,6.486,3.569-7.048h0a15.751,15.751,0,1,1,1.471,31.468Z" transform="translate(179.618 -67.012)" fill="#6c63ff"/>
    <path id="Caminho_659" data-name="Caminho 659" d="M927.982,516.339a15.747,15.747,0,1,1,6.972-29.422l-2.789,7.675,5.731-5.5a15.657,15.657,0,0,1,5.117,10.873,15.2,15.2,0,0,1-.4,4.336A15.747,15.747,0,0,1,927.982,516.339Z" transform="translate(187.951 -72.563)" fill="#6c63ff"/>
    <path id="Caminho_660" data-name="Caminho 660" d="M927.283,475.519c-3.633.409-7.176,1.535-10.822,1.765s-7.675-.652-9.965-3.492a48.883,48.883,0,0,1-2.9-5.117,11.322,11.322,0,0,0-3.966-3.735,15.747,15.747,0,1,0,29.422,10.451C928.46,475.417,927.872,475.455,927.283,475.519Z" transform="translate(184.173 -78.126)" opacity="0.1"/>
    <path id="Caminho_661" data-name="Caminho 661" d="M927.968,514.373a15.76,15.76,0,0,1-14.979-22.463,11.653,11.653,0,0,1,3.172,3.16,50.482,50.482,0,0,0,3.121,5.206c2.443,2.891,6.639,3.838,10.438,3.658s7.47-1.279,11.257-1.6c.525,0,1.062-.09,1.586-.1a15.747,15.747,0,0,1-14.6,12.14Z" transform="translate(187.965 -70.596)" opacity="0.1"/>
    <path id="Caminho_662" data-name="Caminho 662" d="M898.092,534.194A15.734,15.734,0,0,1,882.985,512a12.98,12.98,0,0,1,3.326,3.2c1.279,1.727,1.983,3.722,3.415,5.309,2.661,2.968,7.125,4,11.155,3.914s7.675-1.049,11.513-1.343a15.747,15.747,0,0,1-14.3,11.116Z" transform="translate(179.619 -64.987)" opacity="0.1"/>
    <path id="Caminho_663" data-name="Caminho 663" d="M907.044,556.052a15.76,15.76,0,0,1-28.718-12.792,15.425,15.425,0,0,1,3.454,3.083c1.51,1.829,2.495,3.838,4.221,5.6,3.224,3.16,8.417,4.452,13.048,4.579a68.977,68.977,0,0,0,7.995-.473Z" transform="translate(178.444 -56.259)" opacity="0.1"/>
    <path id="Caminho_664" data-name="Caminho 664" d="M1050.523,758.726c3.339-6.178-.448-13.764-4.81-19.277s-9.658-11.244-9.543-18.28c.154-10.093,10.873-16.054,19.444-21.414a94.534,94.534,0,0,0,17.448-14.071,25.494,25.494,0,0,0,5.373-7.176c1.765-3.953,1.714-8.443,1.612-12.792q-.55-21.618-2.136-43.186" transform="translate(222.777 -34.127)" fill="none" stroke="#3f3d56" stroke-miterlimit="10" stroke-width="4"/>
    <path id="Caminho_665" data-name="Caminho 665" d="M1088.376,625.206a15.721,15.721,0,0,0-7.854-12.894l-3.531,6.972.1-8.443a15.45,15.45,0,0,0-5.117-.627,15.747,15.747,0,1,0,16.463,14.992Z" transform="translate(228.583 -37.57)" fill="#6c63ff"/>
    <path id="Caminho_666" data-name="Caminho 666" d="M1066.063,710.269a15.747,15.747,0,1,1,.755-12.69l-9.837,8.008,10.822-2.558a15.653,15.653,0,0,1-1.74,7.24Z" transform="translate(222.817 -16.038)" fill="#6c63ff"/>
    <path id="Caminho_667" data-name="Caminho 667" d="M1057.092,688.219a15.747,15.747,0,0,1-5-30.893l-.077,6.485,3.569-7.048h0a15.751,15.751,0,1,1,1.471,31.468Z" transform="translate(224.011 -24.574)" fill="#6c63ff"/>
    <path id="Caminho_668" data-name="Caminho 668" d="M1086.982,668.339a15.747,15.747,0,1,1,6.972-29.422l-2.789,7.675,5.731-5.5a15.658,15.658,0,0,1,5.117,10.873,15.21,15.21,0,0,1-.4,4.337A15.747,15.747,0,0,1,1086.982,668.339Z" transform="translate(232.344 -30.125)" fill="#6c63ff"/>
    <path id="Caminho_669" data-name="Caminho 669" d="M1086.283,627.519c-3.633.409-7.176,1.535-10.822,1.765s-7.675-.652-9.965-3.492a48.848,48.848,0,0,1-2.9-5.117,11.32,11.32,0,0,0-3.966-3.735,15.747,15.747,0,1,0,29.422,10.451C1087.46,627.417,1086.871,627.455,1086.283,627.519Z" transform="translate(228.565 -35.688)" opacity="0.1"/>
    <path id="Caminho_670" data-name="Caminho 670" d="M1086.968,666.373a15.76,15.76,0,0,1-14.979-22.463,11.655,11.655,0,0,1,3.172,3.16,50.516,50.516,0,0,0,3.121,5.206c2.443,2.891,6.639,3.838,10.438,3.658s7.471-1.279,11.257-1.6c.525,0,1.062-.09,1.586-.1A15.747,15.747,0,0,1,1086.968,666.373Z" transform="translate(232.358 -28.158)" opacity="0.1"/>
    <path id="Caminho_671" data-name="Caminho 671" d="M1057.092,686.194A15.734,15.734,0,0,1,1041.985,664a12.986,12.986,0,0,1,3.326,3.2c1.279,1.727,1.983,3.722,3.416,5.309,2.661,2.968,7.125,4,11.155,3.914s7.675-1.049,11.513-1.343A15.747,15.747,0,0,1,1057.092,686.194Z" transform="translate(224.011 -22.549)" opacity="0.1"/>
    <path id="Caminho_672" data-name="Caminho 672" d="M1066.044,708.052a15.76,15.76,0,0,1-28.718-12.792,15.43,15.43,0,0,1,3.454,3.083c1.51,1.829,2.558,3.838,4.221,5.6,3.224,3.16,8.417,4.452,13.048,4.58a69.011,69.011,0,0,0,8-.473Z" transform="translate(222.837 -13.821)" opacity="0.1"/>
    <path id="Caminho_673" data-name="Caminho 673" d="M567.434,595.75a12.549,12.549,0,0,0-5-10.131,14.711,14.711,0,0,0-12.293-14.429,14.685,14.685,0,0,0-9.786-10.937h0a12.484,12.484,0,0,0-1.816-.422h-2.162a14.4,14.4,0,0,0-13.918,12.306c-4.49-1.036-8.6.307-9.351,3.147a3.838,3.838,0,0,0,.128,2.277c.768,2.2,3.262,4.311,6.6,5.347l.435.128.652.166h.141a11.31,11.31,0,0,0-1.074,4.848,11.18,11.18,0,0,0,6.025,9.978l-.294.179a3.99,3.99,0,0,0-.972,1.356,20.289,20.289,0,0,0-1.88,4.528c-.32,1.356-.371,2.763-.768,4.106-.742,2.469-2.635,4.554-2.853,7.125-.1,1.151.09,2.558-.729,3.3a3.979,3.979,0,0,1-.652.46,5.282,5.282,0,0,0-1.42,1.5,4.964,4.964,0,0,1-1,1.433c-.742.55-1.957.5-2.315,1.356s.576,1.868.358,2.8-1.011,1.113-1.586,1.637a5.692,5.692,0,0,0-1.369,2.558,8.391,8.391,0,0,1-6.908-1.765,12.912,12.912,0,0,1,.716,2.558,11.208,11.208,0,0,0-3.722-1.868,11.754,11.754,0,0,1-3.966-2.942l2.124-.294L489.4,611.74l-2.776-.576,2.482,4.771a1.522,1.522,0,0,0-.844,1.01,4.334,4.334,0,0,0-.09,1.625,29.083,29.083,0,0,0,.64,3.838l.716,3.351c.064.307.141.627.23.934a8.81,8.81,0,0,0-2.776.307,24.154,24.154,0,0,0-5.769-1.369,3.2,3.2,0,0,0-1.279,0,3.313,3.313,0,0,0-1.215.985,39.344,39.344,0,0,0-4.285,6.038c-5.117,8.775-11.781,16.438-18.088,24.369-4.349,1.765-8.737,3.441-13.125,5.117l-9.44,3.607a14.315,14.315,0,0,1-5.859,1.279c-.9,0-2.008-.192-2.558.576a5.382,5.382,0,0,0-.576,1.279l-.972.1h0a11.181,11.181,0,0,0-2.264-4.17,1.433,1.433,0,0,0-1.062.819c-.23.422-.371.883-.64,1.279-.5.742-1.382,1.1-2.008,1.727s-1.023,1.6-1.714,2.239a6.779,6.779,0,0,1-3.211,1.279,20.261,20.261,0,0,0-5.027,1.906,8.1,8.1,0,0,1-1.855.857,6.971,6.971,0,0,1-2.187.077l-4.989-.371a3.943,3.943,0,0,0-1.343.064,2.559,2.559,0,0,0-1.586,2.558,4.029,4.029,0,0,0,1.586,2.75,10.157,10.157,0,0,0,2.84,1.471,83.348,83.348,0,0,0,13.3,3.94v1.01a22.7,22.7,0,0,0,10.234,2.43,1.586,1.586,0,0,0,.768-.141,1.688,1.688,0,0,0,.64-1,41.152,41.152,0,0,0,2-9.8h0a5.116,5.116,0,0,0,1.8-.46c1.714-.473,3.428.7,5.206.9,2.187.243,4.209-1.036,6.281-1.816l.9-.294a9.823,9.823,0,0,1-2.072,1.983c-.857.614-1.817,1.074-2.648,1.714a18.235,18.235,0,0,1-2.251,1.74,14.13,14.13,0,0,1-1.727.665,11.392,11.392,0,0,0-2.469,1.279,5,5,0,0,0-1.676,1.638,2.456,2.456,0,0,0-.141,2.3,2.431,2.431,0,0,0,1.65,1.151,6.771,6.771,0,0,0,2.034,0c2.712-.2,5.411-.448,8.11-.691a21.629,21.629,0,0,0,3.39-.486c.588-.141,1.177-.333,1.765-.5a15.742,15.742,0,0,1,3.083-.46,2.558,2.558,0,0,1,.9.089c.627.2,1.075.844,1.714.972a2.559,2.559,0,0,0,1.279-.166,28.524,28.524,0,0,1,6-.64,2.476,2.476,0,0,0,2.328-1.036c.409-.819-.333-2.136-.665-3.224a9.867,9.867,0,0,1-.281-2.123,13.293,13.293,0,0,0-1.484-5.04,13.158,13.158,0,0,1-1.113-2.3,58.176,58.176,0,0,0,11.039-5.6,19.738,19.738,0,0,1,6.294-3.032,17.116,17.116,0,0,1,7.905.921,179.845,179.845,0,0,1,18.126,6.319c2.827,1.164,5.641,2.392,8.558,3.275a13.343,13.343,0,0,0,3.044,2.955,14.071,14.071,0,0,0,6.588,1.8,86.312,86.312,0,0,0,9.274.345,15.646,15.646,0,0,0,6.908-1.279,7.1,7.1,0,0,0,1.445-.959,5.731,5.731,0,0,0,4.554-1.676,11.039,11.039,0,0,0,3.467-5.475c.755-2.917.179-6.4,1.97-8.724.473-.64,1.1-1.151,1.573-1.791a5.04,5.04,0,0,0,.819-2.955.6.6,0,0,1,.077-.115,10.835,10.835,0,0,0,.768-2.942,16.81,16.81,0,0,1,.831-2.328,71.867,71.867,0,0,0,2.379-6.895,40.279,40.279,0,0,0,1.1-4.733c.192-1.279.307-2.558.409-3.838a23.836,23.836,0,0,1,1.164-5.923,48.2,48.2,0,0,0,2.686-14.173V616a9.5,9.5,0,0,0,8.417-9.671,10.092,10.092,0,0,0-.883-4.132,12.791,12.791,0,0,0,1.714-6.447Zm-45.77,55.607c.141.5.307.985.473,1.471-.755-.729-1.484-1.484-2.239-2.226.294.1.6.192.883.307a4.76,4.76,0,0,1,.844.448Zm-3.62-2.456c-4.426-3.838-9.543-6.818-14.071-10.541,2.469,1.215,4.874,2.635,7.253,3.991q4.234,2.418,8.583,4.643a7.023,7.023,0,0,1-1.8,1.906Zm1.88-9.671.217-.218v1.522l-1.19-.409a10.6,10.6,0,0,0,.934-.9ZM481,649.591a36.623,36.623,0,0,0,4.707-6.716c1.753,3.057,4.605,5.27,7.023,7.842C488.827,650.218,484.912,649.8,481,649.591Z" transform="translate(44.023 -51.633)" fill="url(#linear-gradient-2)"/>
    <path id="Caminho_674" data-name="Caminho 674" d="M415.35,438.25l2.789.563,9.5,14.058-4.183.563Z" transform="translate(115.965 122.458)" fill="#2f2e41"/>
    <path id="Caminho_675" data-name="Caminho 675" d="M414.49,645.491a54.721,54.721,0,0,0,2.789,7.253,69.056,69.056,0,0,0,9.274-2.648,29.235,29.235,0,0,0-1.932-2.558A9.541,9.541,0,0,0,422,645.529a7.214,7.214,0,0,0-3.185,0C417.381,645.491,415.936,645.516,414.49,645.491Z" transform="translate(49.206 -27.756)" fill="#fbbebe"/>
    <path id="Caminho_676" data-name="Caminho 676" d="M427.227,650.118a5.782,5.782,0,0,1-3.172-3.607,11.617,11.617,0,0,0-2.418-4.311,1.382,1.382,0,0,0-1.075.806c-.23.409-.371.87-.627,1.279-.512.729-1.407,1.087-2.047,1.7s-1.023,1.573-1.714,2.2a6.8,6.8,0,0,1-3.236,1.279,20.983,20.983,0,0,0-5.117,1.88,8.831,8.831,0,0,1-1.88.844,7.442,7.442,0,0,1-2.2,0l-5.04-.358a3.939,3.939,0,0,0-1.279,0,2.443,2.443,0,0,0-1.6,2.558,3.838,3.838,0,0,0,1.6,2.712,10.62,10.62,0,0,0,2.865,1.458A84.3,84.3,0,0,0,413.8,662.4v1a23.383,23.383,0,0,0,10.3,2.392,1.739,1.739,0,0,0,.768-.128,1.688,1.688,0,0,0,.64-1,39.91,39.91,0,0,0,2.111-10.95,8.723,8.723,0,0,0-.218-2.827c-.281-.908.665-.524-.2-.883" transform="translate(43.99 -28.635)" fill="#2f2e41"/>
    <path id="Caminho_677" data-name="Caminho 677" d="M517.584,634.41c-14.941.9-29.7-3.479-44.67-3.94a21.811,21.811,0,0,0-5.552.345,27.976,27.976,0,0,0-5.5,2.136c-8.021,3.735-16.323,6.831-24.612,9.914l-9.53,3.543a14.428,14.428,0,0,1-5.9,1.279c-.908,0-2.021-.192-2.558.563-1.548,2.3-.819,5.667.2,8.251.333.832.9,1.74,1.791,1.829a5.2,5.2,0,0,0,1.817-.46c1.727-.46,3.454.7,5.245.9,2.2.23,4.247-1.023,6.332-1.791,3.454-1.279,7.215-1.279,10.848-1.842,6.076-1.01,11.717-3.838,16.988-7.048a19.828,19.828,0,0,1,6.332-2.993,17.527,17.527,0,0,1,7.969.908,182.9,182.9,0,0,1,18.28,6.217,85.2,85.2,0,0,0,9.543,3.492,34.537,34.537,0,0,0,21.4-1.279c2.392-.947,4.989-2.558,5.117-5.193.09-1.471-1.062-2.763-1.816-4.03-.486-.806-.985-1.612-1.509-2.392C525.246,639.1,522.125,634.142,517.584,634.41Z" transform="translate(50.29 -31.923)" fill="#2f2e41"/>
    <path id="Caminho_678" data-name="Caminho 678" d="M517.584,634.41c-14.941.9-29.7-3.479-44.67-3.94a21.811,21.811,0,0,0-5.552.345,27.976,27.976,0,0,0-5.5,2.136c-8.021,3.735-16.323,6.831-24.612,9.914l-9.53,3.543a14.428,14.428,0,0,1-5.9,1.279c-.908,0-2.021-.192-2.558.563-1.548,2.3-.819,5.667.2,8.251.333.832.9,1.74,1.791,1.829a5.2,5.2,0,0,0,1.817-.46c1.727-.46,3.454.7,5.245.9,2.2.23,4.247-1.023,6.332-1.791,3.454-1.279,7.215-1.279,10.848-1.842,6.076-1.01,11.717-3.838,16.988-7.048a19.828,19.828,0,0,1,6.332-2.993,17.527,17.527,0,0,1,7.969.908,182.9,182.9,0,0,1,18.28,6.217,85.2,85.2,0,0,0,9.543,3.492,34.537,34.537,0,0,0,21.4-1.279c2.392-.947,4.989-2.558,5.117-5.193.09-1.471-1.062-2.763-1.816-4.03-.486-.806-.985-1.612-1.509-2.392C525.246,639.1,522.125,634.142,517.584,634.41Z" transform="translate(50.29 -31.923)" opacity="0.1"/>
    <path id="Caminho_679" data-name="Caminho 679" d="M436.92,647.358q3.505,1.19,7.074,2.2c1.279-2.187,3.838-3.71,4.388-6.217a.588.588,0,0,0,0-.333.615.615,0,0,0-.269-.243,13.406,13.406,0,0,0-5.552-1.625c-1.535-.09-2.239,1.509-2.929,2.635C439.363,644.275,437.547,647.6,436.92,647.358Z" transform="translate(55.469 -28.932)" fill="#fbbebe"/>
    <path id="Caminho_680" data-name="Caminho 680" d="M444.523,645.555a5.116,5.116,0,0,1-3.441-2.264c-.32-.576-.678-1.356-1.343-1.279s-.883.768-1.023,1.369a38.373,38.373,0,0,1-1.932,6.639,12.459,12.459,0,0,1-4.132,5.437c-.87.6-1.829,1.049-2.686,1.688a18.455,18.455,0,0,1-2.264,1.714,13.455,13.455,0,0,1-1.74.64,12.06,12.06,0,0,0-2.482,1.279,4.927,4.927,0,0,0-1.7,1.625,2.341,2.341,0,0,0-.128,2.264,2.417,2.417,0,0,0,1.65,1.126,6.957,6.957,0,0,0,2.059,0c2.725-.192,5.449-.435,8.174-.678a23.59,23.59,0,0,0,3.415-.473l1.778-.486a14.157,14.157,0,0,1,3.108-.461,2.417,2.417,0,0,1,.908.09c.627.2,1.075.832,1.727.959a2.89,2.89,0,0,0,1.279-.166,28.25,28.25,0,0,1,6.051-.627,2.553,2.553,0,0,0,2.354-1.023c.512-1-.333-2.111-.678-3.185a10.235,10.235,0,0,1-.281-2.085,12.714,12.714,0,0,0-1.5-4.963c-.691-1.279-1.637-2.686-1.151-4.042a3.839,3.839,0,0,0,.46-1.394C450.816,645.056,445.776,645.836,444.523,645.555Z" transform="translate(51.141 -28.689)" fill="#2f2e41"/>
    <path id="Caminho_681" data-name="Caminho 681" d="M481.167,617.667a11.667,11.667,0,0,1-5.961-5.91c-.243-.563-.448-1.164-.691-1.727a13.127,13.127,0,0,0-3.556-4.95,1.752,1.752,0,0,0-1.279-.55,1.394,1.394,0,0,0-.959,1.036,3.953,3.953,0,0,0-.1,1.6,28.481,28.481,0,0,0,.64,3.735l.729,3.3a7.244,7.244,0,0,0,.448,1.471,5.115,5.115,0,0,0,1.215,1.446c.665.614,1.343,1.2,2.021,1.791a6.943,6.943,0,0,0,1.279.883,7.433,7.433,0,0,0,2.264.665,19.266,19.266,0,0,1,8.494,3.275s0-2.213,0-2.456a3.249,3.249,0,0,0-.64-1.778A11.345,11.345,0,0,0,481.167,617.667Z" transform="translate(64.308 -39.153)" fill="#fbbebe"/>
    <path id="Caminho_682" data-name="Caminho 682" d="M481.167,617.667a11.667,11.667,0,0,1-5.961-5.91c-.243-.563-.448-1.164-.691-1.727a13.127,13.127,0,0,0-3.556-4.95,1.752,1.752,0,0,0-1.279-.55,1.394,1.394,0,0,0-.959,1.036,3.953,3.953,0,0,0-.1,1.6,28.481,28.481,0,0,0,.64,3.735l.729,3.3a7.244,7.244,0,0,0,.448,1.471,5.115,5.115,0,0,0,1.215,1.446c.665.614,1.343,1.2,2.021,1.791a6.943,6.943,0,0,0,1.279.883,7.433,7.433,0,0,0,2.264.665,19.266,19.266,0,0,1,8.494,3.275s0-2.213,0-2.456a3.249,3.249,0,0,0-.64-1.778A11.345,11.345,0,0,0,481.167,617.667Z" transform="translate(64.308 -39.153)" opacity="0.1"/>
    <ellipse id="Elipse_172" data-name="Elipse 172" cx="3.633" cy="3.659" rx="3.633" ry="3.659" transform="translate(572.262 545.946)" fill="#2f2e41"/>
    <path id="Caminho_683" data-name="Caminho 683" d="M505.926,590.5a3.927,3.927,0,0,0-2.865.409,3.98,3.98,0,0,0-.985,1.343,19.515,19.515,0,0,0-1.893,4.452c-.32,1.279-.371,2.725-.78,4.042-.742,2.43-2.648,4.49-2.865,7.023-.1,1.138.09,2.469-.742,3.236a4.7,4.7,0,0,1-.652.473,4.914,4.914,0,0,0-1.433,1.471,4.821,4.821,0,0,1-1.011,1.394c-.742.55-1.97.5-2.328,1.279s.576,1.842.358,2.763-1.023,1.1-1.6,1.612a5.589,5.589,0,0,0-1.382,2.558,8.533,8.533,0,0,1-6.959-1.727,22.157,22.157,0,0,1,1.087,7.957,3.25,3.25,0,0,1-.64,2.456,44.3,44.3,0,0,1,8.532,1.484,5.885,5.885,0,0,0,3.722,0,6.217,6.217,0,0,0,1.714-1.356c1.535-1.561,3.147-3.262,3.518-5.424a31.869,31.869,0,0,0,.064-3.671,20.694,20.694,0,0,1,.934-4.464,53.123,53.123,0,0,0,1.625-9.185c.166-1.919,1.829-3.454,2.7-5.117,1.637-3.236,3.326-6.6,3.441-10.234C507.538,592.1,507.129,590.632,505.926,590.5Z" transform="translate(67.717 -43.099)" fill="#2f2e41"/>
    <path id="Caminho_684" data-name="Caminho 684" d="M505.926,590.5a3.927,3.927,0,0,0-2.865.409,3.98,3.98,0,0,0-.985,1.343,19.515,19.515,0,0,0-1.893,4.452c-.32,1.279-.371,2.725-.78,4.042-.742,2.43-2.648,4.49-2.865,7.023-.1,1.138.09,2.469-.742,3.236a4.7,4.7,0,0,1-.652.473,4.914,4.914,0,0,0-1.433,1.471,4.821,4.821,0,0,1-1.011,1.394c-.742.55-1.97.5-2.328,1.279s.576,1.842.358,2.763-1.023,1.1-1.6,1.612a5.589,5.589,0,0,0-1.382,2.558,8.533,8.533,0,0,1-6.959-1.727,22.157,22.157,0,0,1,1.087,7.957,3.25,3.25,0,0,1-.64,2.456,44.3,44.3,0,0,1,8.532,1.484,5.885,5.885,0,0,0,3.722,0,6.217,6.217,0,0,0,1.714-1.356c1.535-1.561,3.147-3.262,3.518-5.424a31.869,31.869,0,0,0,.064-3.671,20.694,20.694,0,0,1,.934-4.464,53.123,53.123,0,0,0,1.625-9.185c.166-1.919,1.829-3.454,2.7-5.117,1.637-3.236,3.326-6.6,3.441-10.234C507.538,592.1,507.129,590.632,505.926,590.5Z" transform="translate(67.717 -43.099)" opacity="0.1"/>
    <path id="Caminho_685" data-name="Caminho 685" d="M514.064,642.717c-3.108-1.484-5.385-4.234-7.905-6.6-4.8-4.516-10.668-7.675-15.721-11.935-3.352-2.8-6.4-6.063-10.016-8.417a25.032,25.032,0,0,0-10.732-3.748,2.852,2.852,0,0,0-1.279,0,2.942,2.942,0,0,0-1.215.959,38.656,38.656,0,0,0-4.336,5.948c-6.4,10.873-15.491,20.007-23.026,30.112a1.918,1.918,0,0,0-.371.716,1.778,1.778,0,0,0,.281,1.113l1.535,2.993c.857,1.689,2.239,3.646,4.081,3.313a4.465,4.465,0,0,0,2.136-1.369l6.882-6.588,7.215-6.895c4.221-4.029,8.519-8.161,11.283-13.329,2.149,3.735,5.974,6.179,8.583,9.594,1,1.279,1.817,2.725,2.712,4.106,1.42,2.2,3.044,4.273,4.656,6.4L497.1,659.64a15.836,15.836,0,0,0,3.838,3.838,14.647,14.647,0,0,0,6.639,1.778,87.723,87.723,0,0,0,9.351.333,16.12,16.12,0,0,0,6.972-1.279,6.319,6.319,0,0,0,3.774-5.616,8.238,8.238,0,0,0-1.19-3.492C523.492,649.867,519.629,645.365,514.064,642.717Z" transform="translate(56.176 -37.083)" fill="#2f2e41"/>
    <ellipse id="Elipse_173" data-name="Elipse 173" cx="2.801" cy="2.814" rx="2.801" ry="2.814" transform="translate(575.332 549.323)" fill="#e8e8f0"/>
    <path id="Caminho_686" data-name="Caminho 686" d="M504.308,594.448a5.385,5.385,0,0,1,.307,4.042,16.4,16.4,0,0,1-1.8,3.722,17.72,17.72,0,0,1-2.341,3.326c4.324.2,8.507-1.484,12.306-3.531,3.07-1.65,6.127-3.684,7.765-6.767a3.581,3.581,0,0,1-2.865-.537,10.238,10.238,0,0,1-2.188-2.034l-2.162-2.43a9.729,9.729,0,0,1-1.279-1.753,4.836,4.836,0,0,1-.576-2.827,16.465,16.465,0,0,1-2.865,2.379c-1.548,1.01-3.249,1.74-4.81,2.737-.537.358-1.765.921-1.445,1.637S503.873,593.681,504.308,594.448Z" transform="translate(73.212 -44.421)" fill="#fbbebe"/>
    <path id="Caminho_687" data-name="Caminho 687" d="M504.308,594.448a5.385,5.385,0,0,1,.307,4.042,16.4,16.4,0,0,1-1.8,3.722,17.72,17.72,0,0,1-2.341,3.326c4.324.2,8.507-1.484,12.306-3.531,3.07-1.65,6.127-3.684,7.765-6.767a3.581,3.581,0,0,1-2.865-.537,10.238,10.238,0,0,1-2.188-2.034l-2.162-2.43a9.729,9.729,0,0,1-1.279-1.753,4.836,4.836,0,0,1-.576-2.827,16.465,16.465,0,0,1-2.865,2.379c-1.548,1.01-3.249,1.74-4.81,2.737-.537.358-1.765.921-1.445,1.637S503.873,593.681,504.308,594.448Z" transform="translate(73.212 -44.421)" opacity="0.1"/>
    <path id="Caminho_688" data-name="Caminho 688" d="M507.226,592.959a3.646,3.646,0,0,0,0,4.221c.128.154.588,1.113.78,1.126a.7.7,0,0,0,.486-.256,32.1,32.1,0,0,0,2.738-3.262,6.088,6.088,0,0,1,3.479-2.277,7.521,7.521,0,0,1,4.8,1.5,4.553,4.553,0,0,1,1.65,1.279,4.464,4.464,0,0,1,.537,1.829,88.145,88.145,0,0,1,.486,11.628,45.837,45.837,0,0,1-.55,8.379c-.281,1.42-.691,2.814-.883,4.26a27.163,27.163,0,0,0-.179,3.838v5.347a14.069,14.069,0,0,0,.2,2.929c.256,1.164.806,2.251,1.177,3.39a22.17,22.17,0,0,1,.78,4l.729,5.526c.23,1.74.409,3.646-.652,5.117-.473.627-1.1,1.138-1.586,1.765-1.8,2.354-1.279,5.718-1.983,8.6a10.72,10.72,0,0,1-3.505,5.373,5.8,5.8,0,0,1-4.618,1.65c-2.251-.422-3.595-2.763-4.209-4.976s-.831-4.618-2.162-6.486a17.2,17.2,0,0,0-4.272-3.569,7.381,7.381,0,0,1-3.339-4.336c-.141-.806,0-1.637-.141-2.456a5.8,5.8,0,0,0-3.569-4.695c-1.151-.448-2.558-.614-3.224-1.663a7.765,7.765,0,0,0,3.364-4.516,23.191,23.191,0,0,0,.819-5.705l.384-6.4c.179-2.878.256-5.718,1.522-8.3.563-1.151,1.279-2.239,1.855-3.377a36.657,36.657,0,0,0,1.983-4.95c.921-2.635,1.842-5.27,2.661-7.931a14.943,14.943,0,0,1,1.458-3.7C504.936,594.66,505.934,593.215,507.226,592.959Z" transform="translate(70.344 -42.51)" fill="#e8e8f0"/>
    <path id="Caminho_689" data-name="Caminho 689" d="M492.4,634.965h1.7l.358-2.558a5.334,5.334,0,0,1,.358-1.5,8.954,8.954,0,0,1,.985-1.433c1.663-2.367,1.548-5.5,1.957-8.379a42.635,42.635,0,0,1,3.735-10.95l3.3-7.355a10.155,10.155,0,0,0,.716-1.88,11.275,11.275,0,0,0,.2-2.175c0-1.139.358-5.283.4-6.4,0-.422-.934-.192-1.126-.563-.409-.819-.972,1.394-1.753,1.88a4.3,4.3,0,0,0-1.522,2.226c-.716,1.842-1.151,3.838-1.817,5.667a11.576,11.576,0,0,1-3.083,5.014c-.678.589-1.458,1.062-2.1,1.7-2.047,2.021-2.251,5.232-2.315,8.123C492.349,618.156,492.016,634.965,492.4,634.965Z" transform="translate(70.907 -42.763)" fill="#2f2e41"/>
    <path id="Caminho_690" data-name="Caminho 690" d="M514.887,590.508a5.808,5.808,0,0,0-3.032,4.157,21.031,21.031,0,0,1-1.535,5.117c-2.072,3.607-7.355,4.656-8.826,8.558a15.733,15.733,0,0,0-.588,4.03c-.256,2.8-1.177,5.5-1.458,8.289a36.938,36.938,0,0,0,.154,6.511l1.855,22.028a29.423,29.423,0,0,1-.55,9.7,9.339,9.339,0,0,0,5.552-.921c1.727-.793,3.313-1.88,4.989-2.8,2.865-1.586,6.038-2.7,8.558-4.81a5.234,5.234,0,0,0,1.151-1.279,11.062,11.062,0,0,0,.768-2.891,15.6,15.6,0,0,1,.831-2.277,67.078,67.078,0,0,0,2.4-6.805,39.086,39.086,0,0,0,1.1-4.656c.2-1.279.32-2.558.422-3.838a22.509,22.509,0,0,1,1.177-5.82,46.885,46.885,0,0,0,2.7-13.969,7.3,7.3,0,0,0-.141-2.047,10.95,10.95,0,0,0-1.126-2.341c-.767-1.445-1.279-3.032-1.944-4.5a22.142,22.142,0,0,0-7.56-7.944C518.3,590.981,516.563,589.907,514.887,590.508Z" transform="translate(72.904 -43.116)" fill="#2f2e41"/>
    <path id="Caminho_691" data-name="Caminho 691" d="M485.661,620.191a13.341,13.341,0,0,1-3.518-2.674c-.46-.537-.844-1.139-1.279-1.676a8.712,8.712,0,0,0-4.426-2.558,21.619,21.619,0,0,0-5.117-.5,9.285,9.285,0,0,0-3.416.409,3.479,3.479,0,0,0-2.264,2.431,4.03,4.03,0,0,0,1.727,3.582,8.137,8.137,0,0,0,3.441,1.663,27.515,27.515,0,0,0,3.108.371c6.115.64,11.577,3.966,16.937,7q7.061,4.017,14.4,7.471a29.931,29.931,0,0,0,.243-4.413c0-1.1-.09-2.789-1.126-3.441a22.589,22.589,0,0,0-4.58-1.369,72.078,72.078,0,0,1-9.223-3.735A45.9,45.9,0,0,1,485.661,620.191Z" transform="translate(63.485 -36.854)" fill="#fbbebe"/>
    <ellipse id="Elipse_174" data-name="Elipse 174" cx="10.899" cy="10.963" rx="10.899" ry="10.963" transform="translate(564.996 526.848)" fill="#fbbebe"/>
    <path id="Caminho_692" data-name="Caminho 692" d="M519.8,600.483a17.472,17.472,0,0,0-2.111,3.953c-1.279,2.763-3.454,5.117-4.516,8.046s-1.075,6.69-3.262,9.082a3.184,3.184,0,0,0-.959,1.381,6.6,6.6,0,0,1-.1,1c-.32.87-1.74.908-2.008,1.8-.077.256,0,.537-.128.793-.217.576-.985.665-1.484,1.011-1.062.716-.844,2.379-1.6,3.415a2.878,2.878,0,0,1-2.725.959,9.6,9.6,0,0,1-2.827-1.062,2.727,2.727,0,0,0-1.023-.32,2.11,2.11,0,0,0-1.177.409,7.253,7.253,0,0,0-2.942,6.2,20.263,20.263,0,0,0,1.688,6.946,2.788,2.788,0,0,0,.55,1.036,2.443,2.443,0,0,0,2.712.2,12.79,12.79,0,0,1,2.648-1.19c1.689-.307,3.339.857,5.053.755a7.023,7.023,0,0,0,3.4-1.5,18.8,18.8,0,0,0,4.58-3.838c.742-.985,1.279-2.1,1.944-3.147a40.37,40.37,0,0,1,2.75-3.671l6.294-7.675a17.675,17.675,0,0,0,1.689-2.328,16.409,16.409,0,0,0,1.279-3.518,26.95,26.95,0,0,0,1.279-6.255,24.039,24.039,0,0,0-.461-5.245,18.539,18.539,0,0,0-1.279-5C525.692,599.844,522.366,597.49,519.8,600.483Z" transform="translate(71.104 -40.67)" fill="#2f2e41"/>
    <path id="Caminho_693" data-name="Caminho 693" d="M543.026,596.763a12.28,12.28,0,0,0-5.04-9.978,14.6,14.6,0,0,0-12.4-14.212,14.161,14.161,0,0,0-27.9.755c-4.528-1.023-8.673.307-9.428,3.1s2.443,6.4,7.215,7.675a13.443,13.443,0,0,0,4.631.461,14.173,14.173,0,0,0,9.747,6.076A14.544,14.544,0,0,0,520.5,601.611a12.217,12.217,0,0,0,3.288,4.541v1.062a9.223,9.223,0,1,0,18.446,0,9.849,9.849,0,0,0-.883-4.081A12.331,12.331,0,0,0,543.026,596.763Z" transform="translate(69.773 -51.252)" fill="#f86d70"/>
    <path id="Caminho_694" data-name="Caminho 694" d="M491.337,577.014c.755-2.789,4.9-4.119,9.428-3.1a14.4,14.4,0,0,1,14.071-12.127h.934a13.864,13.864,0,0,0-4.017-.6,14.4,14.4,0,0,0-14.071,12.127c-4.528-1.023-8.673.307-9.428,3.1s2.443,6.4,7.215,7.675a14.068,14.068,0,0,0,2.738.473C493.639,583.192,490.582,579.866,491.337,577.014Z" transform="translate(69.77 -51.253)" opacity="0.1"/>
    <path id="Caminho_695" data-name="Caminho 695" d="M524.135,602.549a9.622,9.622,0,0,1,0-1.049,11.946,11.946,0,0,1-3.288-4.541A14.506,14.506,0,0,1,510.2,585.97a14.135,14.135,0,0,1-9.76-6.063,12.277,12.277,0,0,1-2.725-.077,14.212,14.212,0,0,0,9.4,5.59A14.544,14.544,0,0,0,517.765,596.4a12.217,12.217,0,0,0,3.288,4.541V602a9.389,9.389,0,0,0,9.172,9.543A9.543,9.543,0,0,1,524.135,602.549Z" transform="translate(72.444 -46.049)" opacity="0.1"/>
    <ellipse id="Elipse_175" data-name="Elipse 175" cx="1.676" cy="2.239" rx="1.676" ry="2.239" transform="translate(576.853 539.282) rotate(-37.22)" fill="#fbbebe"/>
  </g>
</svg>
